<svg width="377" height="196" viewBox="0 0 377 196" fill="none" xmlns="http://www.w3.org/2000/svg">
<g filter="url(#filter0_d_1408_1050)">
<mask id="path-1-inside-1_1408_1050" fill="white">
<path fill-rule="evenodd" clip-rule="evenodd" d="M60.568 13.9811C59.7673 12.9698 58.2327 12.9698 57.432 13.9811L48.8839 24.777H25C19.4772 24.777 15 29.2541 15 34.777V164.777C15 170.3 19.4772 174.777 25 174.777H348C353.523 174.777 358 170.3 358 164.777V34.777C358 29.2541 353.523 24.777 348 24.777H69.1161L60.568 13.9811Z"/>
</mask>
<path fill-rule="evenodd" clip-rule="evenodd" d="M60.568 13.9811C59.7673 12.9698 58.2327 12.9698 57.432 13.9811L48.8839 24.777H25C19.4772 24.777 15 29.2541 15 34.777V164.777C15 170.3 19.4772 174.777 25 174.777H348C353.523 174.777 358 170.3 358 164.777V34.777C358 29.2541 353.523 24.777 348 24.777H69.1161L60.568 13.9811Z" fill="white"/>
<path d="M57.432 13.9811L56.648 13.3604V13.3604L57.432 13.9811ZM60.568 13.9811L59.784 14.6019V14.6019L60.568 13.9811ZM48.8839 24.777V25.777H49.3676L49.6679 25.3977L48.8839 24.777ZM69.1161 24.777L68.3321 25.3977L68.6324 25.777H69.1161V24.777ZM58.216 14.6019C58.6164 14.0962 59.3836 14.0962 59.784 14.6019L61.352 13.3604C60.1509 11.8434 57.8491 11.8434 56.648 13.3604L58.216 14.6019ZM49.6679 25.3977L58.216 14.6019L56.648 13.3604L48.0999 24.1562L49.6679 25.3977ZM25 25.777H48.8839V23.777H25V25.777ZM16 34.777C16 29.8064 20.0294 25.777 25 25.777V23.777C18.9249 23.777 14 28.7018 14 34.777H16ZM16 164.777V34.777H14V164.777H16ZM25 173.777C20.0294 173.777 16 169.748 16 164.777H14C14 170.852 18.9249 175.777 25 175.777V173.777ZM348 173.777H25V175.777H348V173.777ZM357 164.777C357 169.748 352.971 173.777 348 173.777V175.777C354.075 175.777 359 170.852 359 164.777H357ZM357 34.777V164.777H359V34.777H357ZM348 25.777C352.971 25.777 357 29.8064 357 34.777H359C359 28.7018 354.075 23.777 348 23.777V25.777ZM69.1161 25.777H348V23.777H69.1161V25.777ZM59.784 14.6019L68.3321 25.3977L69.9001 24.1562L61.352 13.3604L59.784 14.6019Z" fill="#D2D2D2" mask="url(#path-1-inside-1_1408_1050)"/>
</g>
<defs>
<filter id="filter0_d_1408_1050" x="0" y="0.222656" width="377" height="195.555" filterUnits="userSpaceOnUse" color-interpolation-filters="sRGB">
<feFlood flood-opacity="0" result="BackgroundImageFix"/>
<feColorMatrix in="SourceAlpha" type="matrix" values="0 0 0 0 0 0 0 0 0 0 0 0 0 0 0 0 0 0 127 0" result="hardAlpha"/>
<feOffset dx="2" dy="4"/>
<feGaussianBlur stdDeviation="8.5"/>
<feComposite in2="hardAlpha" operator="out"/>
<feColorMatrix type="matrix" values="0 0 0 0 0 0 0 0 0 0 0 0 0 0 0 0 0 0 0.15 0"/>
<feBlend mode="normal" in2="BackgroundImageFix" result="effect1_dropShadow_1408_1050"/>
<feBlend mode="normal" in="SourceGraphic" in2="effect1_dropShadow_1408_1050" result="shape"/>
</filter>
</defs>
</svg>
