<svg width="265" height="29" viewBox="0 0 265 29" fill="none" xmlns="http://www.w3.org/2000/svg">
<path d="M9.0317 6.58195L13.8626 18.6255H18.0634L10.9921 2.3107V2.17065H7.00132L0.0700132 18.4855L0 18.6255H4.20079L9.0317 6.58195Z" fill="#434343"/>
<path d="M34.7262 15.8246C34.026 15.8246 33.676 15.4745 33.676 14.7743V8.96261C33.676 4.27123 31.0155 1.75049 26.0445 1.75049C23.384 1.75049 21.0036 2.45069 19.8133 2.87082H19.7433V6.44187L19.8834 6.37185C21.7737 5.5316 23.6641 5.11148 25.6945 5.11148C28.2849 5.11148 29.8252 6.37185 29.8252 8.40245V8.82257C28.425 8.54249 26.9547 8.40245 25.7645 8.40245C24.0141 8.40245 18.4131 8.82257 18.4131 13.9341C18.4131 17.4351 21.3536 19.0456 24.2242 19.0456C26.5346 19.0456 28.565 18.3454 30.3153 17.015C30.8754 18.2053 31.9956 18.8355 33.6059 18.8355C34.4461 18.8355 35.2863 18.6955 35.9164 18.4154H35.9864V15.5446L35.8464 15.6146C35.4263 15.7546 35.0762 15.8246 34.7262 15.8246ZM29.8252 11.6234V14.2142C28.635 15.4045 27.0247 16.0347 25.2744 16.0347C23.8041 16.0347 22.3338 15.3345 22.3338 13.794C22.3338 11.4834 25.2044 11.2733 26.3946 11.2733C27.7949 11.2033 29.2651 11.4834 29.8252 11.6234Z" fill="#434343"/>
<path d="M38.1572 18.6255H42.008V5.60167H49.8494V18.6255H53.7002V2.17065H38.1572V18.6255Z" fill="#434343"/>
<path d="M63.782 8.47252C62.0317 8.47252 56.4307 8.89264 56.4307 14.0041C56.4307 17.5052 59.3712 19.1157 62.2418 19.1157C64.5522 19.1157 66.5826 18.4154 68.3329 17.0851C68.893 18.2754 70.0132 18.9056 71.6235 18.9056C72.4637 18.9056 73.3038 18.7656 73.934 18.4855H74.004V15.6146L73.8639 15.6846C73.5139 15.7547 73.1638 15.8947 72.8137 15.8947C72.1136 15.8947 71.7636 15.5446 71.7636 14.8444V9.03268C71.7636 4.3413 69.103 1.82056 64.1321 1.82056C61.4716 1.82056 59.0912 2.52076 57.9009 2.94089H57.8309V6.51194L57.971 6.44192C59.8613 5.60167 61.7517 5.18155 63.782 5.18155C66.3725 5.18155 67.9128 6.44192 67.9128 8.47252V8.89264C66.5126 8.61256 65.0423 8.47252 63.782 8.47252ZM67.9128 11.6234V14.2142C66.7226 15.4046 65.1123 16.0347 63.362 16.0347C61.8917 16.0347 60.4214 15.3345 60.4214 13.7941C60.4214 11.4834 63.292 11.2733 64.4822 11.2733C65.8824 11.2033 67.3527 11.4834 67.9128 11.6234Z" fill="#434343"/>
<path d="M136.035 18.6255H139.886V5.60167H148.357V2.17065H136.035V18.6255Z" fill="#434343"/>
<path d="M160.19 1.75049C157.739 1.75049 155.709 2.66076 154.099 4.48129V2.17061H150.668V26.0476H154.519V16.7349C155.429 17.7152 157.249 19.0456 160.26 19.0456C164.951 19.0456 168.381 15.4045 168.381 10.363C168.381 5.39156 164.951 1.75049 160.19 1.75049ZM159.56 5.1815C162.43 5.1815 164.461 7.35214 164.461 10.433C164.461 13.514 162.43 15.6846 159.56 15.6846C156.899 15.6846 155.219 13.9341 154.519 12.3936V8.40245C155.219 6.79197 157.039 5.1815 159.56 5.1815Z" fill="#434343"/>
<path d="M183.085 12.9538C182.525 13.7941 180.984 15.5446 178.674 15.5446C176.224 15.5446 175.033 14.2842 175.033 11.7635V2.17065H171.183V12.3236C171.183 16.3848 173.843 19.0456 177.974 19.0456C179.864 19.0456 181.685 18.2754 183.085 16.945V18.3454C183.085 19.7458 182.735 20.8662 181.965 21.6364C181.054 22.5467 179.584 23.0368 177.624 23.0368C175.453 23.0368 173.353 22.4766 172.093 21.6364L171.883 21.4963V24.9974L171.953 25.0674C173.493 25.9777 175.873 26.4678 178.114 26.4678C183.575 26.4678 186.866 23.4569 187.006 18.4855V2.17065H183.155V12.9538H183.085Z" fill="#434343"/>
<path d="M200.238 10.5731L194.847 2.24068L194.777 2.17065H190.926V18.6255H194.636V7.91235L199.047 14.7043H201.358L205.769 7.91235V18.6255H209.479V2.17065H205.699L200.238 10.5731Z" fill="#434343"/>
<path d="M217.391 12.5337V2.17065H213.54V18.6255H216.831L225.302 8.26245V18.6255H229.153V2.17065H225.862L217.391 12.5337Z" fill="#434343"/>
<path d="M244.837 8.68257H236.995V2.17065H233.145V18.6255H236.995V12.1136H244.837V18.6255H248.687V2.17065H244.837V8.68257Z" fill="#434343"/>
<path d="M252.747 2.17065V18.6255H256.598V5.60167H264.999V2.17065H252.747Z" fill="#434343"/>
<path d="M122.804 11.8335V11.9735C122.384 16.1747 118.884 19.4657 114.893 19.4657C111.462 19.4657 108.312 17.015 107.261 13.514C107.261 13.2339 107.331 13.0238 107.401 12.8137C107.471 12.4636 107.611 12.1135 107.751 11.8335C108.382 10.5731 109.502 9.66282 110.832 9.31272L112.302 8.89259L112.022 7.35214C111.742 5.88171 110.972 4.62133 109.922 3.64105C108.592 2.45069 106.911 1.75049 105.091 1.75049C103.341 1.75049 101.66 2.38067 100.33 3.57102C99.2799 4.48129 98.5797 5.67164 98.2297 7.00204L97.8096 8.54249L99.3499 8.96261C100.75 9.38274 101.94 10.433 102.5 11.7634C102.64 12.0435 102.711 12.3936 102.781 12.7437C102.781 12.9538 102.851 13.1639 102.851 13.3739C101.87 16.8749 98.6497 19.3957 95.2191 19.3957C91.2283 19.3957 87.7277 16.1047 87.3076 11.9035V11.7634H84.017H83.877V11.9035C84.297 17.9253 89.268 22.6867 95.1491 22.6867C96.1293 22.6867 97.0394 22.5466 97.9496 22.2665C98.5797 25.6275 101.52 28.1483 104.951 28.1483C108.382 28.1483 111.322 25.6975 111.952 22.2665C112.862 22.5466 113.843 22.6867 114.823 22.6867C120.704 22.6867 125.605 17.9253 126.095 11.8335V11.6934H122.804V11.8335ZM102.01 6.58191C102.15 6.37185 102.29 6.23181 102.5 6.09177C103.201 5.46158 104.041 5.11148 105.021 5.11148C105.931 5.11148 106.841 5.46158 107.541 6.09177C107.751 6.30183 107.961 6.51189 108.102 6.79197C106.841 7.49218 105.791 8.47247 105.091 9.66282C104.391 8.33243 103.341 7.28212 102.01 6.58191ZM101.24 21.0062C102.781 19.8858 104.111 18.4854 105.021 16.8749C105.931 18.4854 107.191 19.8858 108.732 20.9361V21.1462C108.732 22.1965 108.312 23.2468 107.471 23.947C106.771 24.5772 105.861 24.9273 104.951 24.9273C104.811 24.9273 104.671 24.9273 104.601 24.9273C102.781 24.7173 101.24 22.9667 101.24 21.0062Z" fill="#434343"/>
<path d="M91.3678 6.58194C93.1881 6.58194 94.6584 5.11151 94.6584 3.29097C94.6584 1.47043 93.1881 0 91.3678 0C89.5474 0 88.0771 1.47043 88.0771 3.29097C88.0771 5.11151 89.5474 6.58194 91.3678 6.58194Z" fill="#434343"/>
<path d="M118.673 6.58194C120.494 6.58194 121.964 5.11151 121.964 3.29097C121.964 1.47043 120.494 0 118.673 0C116.853 0 115.383 1.47043 115.383 3.29097C115.383 5.11151 116.853 6.58194 118.673 6.58194Z" fill="#434343"/>
</svg>
