<svg width="110" height="110" viewBox="0 0 110 110" fill="none" xmlns="http://www.w3.org/2000/svg">
<path d="M0 55.0002C0 24.6246 24.6243 0.000244141 55 0.000244141C85.3757 0.000244141 110 24.6246 110 55.0002C110 85.3759 85.3757 110 55 110C24.6243 110 0 85.3759 0 55.0002Z" fill="white"/>
<path d="M20.8587 39.2962L20.4284 40.4797L15.2641 37.0369L13.973 40.4797L19.1373 43.9226L18.707 45.106L12.4668 41.1252L14.7262 35.3154L20.8587 39.2962Z" fill="#434343"/>
<path d="M23.5491 34.8851C23.0111 35.7458 22.3656 36.2837 21.5049 36.4989C20.6441 36.7141 19.891 36.6065 19.0303 36.0686C18.062 35.423 17.4165 34.5623 17.2013 33.3788C16.9861 32.3029 17.0937 31.2271 17.7392 30.2588C18.2772 29.398 18.9227 28.8601 19.7834 28.6449C20.6441 28.4297 21.3973 28.5373 22.258 29.0753C23.2263 29.7208 23.8718 30.5815 24.087 31.765C24.4098 32.8409 24.1946 33.9168 23.5491 34.8851ZM22.6883 34.2396C23.1187 33.594 23.2263 32.9485 23.0111 32.1954C22.7959 31.4422 22.3656 30.7967 21.6125 30.3663C21.0745 30.0436 20.5366 29.936 19.9986 30.0436C19.4607 30.0436 18.9227 30.3663 18.6 30.9043C18.1696 31.5498 18.062 32.1954 18.2772 32.9485C18.4924 33.7016 18.9227 34.3471 19.6758 34.7775C20.2138 35.1003 20.7517 35.2079 21.2897 35.1003C21.8276 35.1003 22.3656 34.6699 22.6883 34.2396Z" fill="#434343"/>
<path d="M26.1304 32.8409L24.8393 30.7967C25.0545 30.5815 25.162 30.3664 25.162 30.1512C25.162 29.936 25.162 29.6132 25.0545 29.1829C24.9469 28.7525 24.7317 28.2146 24.4089 27.5691L22.6875 24.1262L26.1304 20.6833L29.4656 25.9552L29.896 25.5249L31.187 27.6766L30.3263 28.5374L29.5732 27.3539L26.1304 30.7967L26.8835 31.9802L26.1304 32.8409ZM24.1937 24.3414L25.4848 26.8159C26.0228 27.7842 26.1304 28.7525 26.0228 29.5057L28.7125 26.9235L26.0228 22.62L24.1937 24.3414Z" fill="#434343"/>
<path d="M34.6299 23.911C33.7692 24.449 32.9085 24.6642 32.0478 24.449C31.1871 24.3414 30.5415 23.8035 30.0036 23.0503C29.358 22.082 29.1429 21.0061 29.358 19.8227C29.5732 18.7468 30.2187 17.8861 31.1871 17.2405C32.0478 16.7026 32.9085 16.4874 33.7692 16.7026C34.6299 16.9178 35.2754 17.3481 35.8134 18.1012C36.4589 19.0695 36.6741 20.1454 36.4589 21.3289C36.1362 22.5124 35.5982 23.3731 34.6299 23.911ZM34.092 22.9427C34.7375 22.5124 35.1679 21.9744 35.2754 21.2213C35.383 20.4682 35.2754 19.7151 34.8451 18.9619C34.5223 18.424 34.092 18.1012 33.4464 17.9936C32.9085 17.8861 32.3705 17.9936 31.8326 18.3164C31.1871 18.7468 30.7567 19.2847 30.6491 20.0378C30.5415 20.791 30.6491 21.5441 31.0795 22.2972C31.4022 22.8352 31.8326 23.1579 32.4781 23.2655C33.0161 23.4807 33.554 23.2655 34.092 22.9427Z" fill="#434343"/>
<path d="M37.2119 14.3354L41.8382 12.614L42.0534 13.6899L38.6106 14.981L38.8258 16.5948L40.332 16.0569C40.9775 15.8417 41.5155 15.8417 41.9458 16.0569C42.4838 16.272 42.8065 16.5948 42.9141 17.1328C43.0217 17.3479 43.0217 17.6707 43.0217 17.9935C43.0217 18.3162 43.0217 18.639 42.9141 18.9618C42.8065 19.2845 42.5914 19.6073 42.2686 19.8225C41.9458 20.1453 41.6231 20.3604 41.0851 20.5756L38.1802 21.6515L37.2119 14.3354ZM40.5472 17.1328L38.9333 17.6707L39.2561 19.9301L40.8699 19.2845C41.3003 19.1769 41.6231 18.8542 41.7307 18.5314C41.8382 18.2086 41.9458 17.8859 41.7307 17.4555C41.7307 17.4555 41.5155 17.2403 41.3003 17.1328C41.0851 17.0252 40.7624 17.0252 40.5472 17.1328Z" fill="#434343"/>
<path d="M45.71 19.0692L44.4189 19.2844L44.7417 11.9683L47.539 11.4304C48.1846 11.3228 48.7225 11.4304 49.1529 11.6456C49.5832 11.9683 49.906 12.3987 49.906 12.9366C49.906 13.1518 49.906 13.367 49.906 13.5822C49.906 13.7974 49.7984 14.0125 49.6908 14.3353C49.5832 14.5505 49.4756 14.7657 49.2605 14.9808C49.2605 15.3036 49.0453 15.5188 48.7225 15.6264C48.3997 15.734 48.077 15.9491 47.6466 15.9491L45.8176 16.3795L45.71 19.0692ZM45.8176 15.196L47.539 14.8732C47.9694 14.7657 48.2922 14.5505 48.5073 14.3353C48.7225 14.0125 48.8301 13.6898 48.7225 13.367C48.7225 13.1518 48.5073 12.9366 48.2922 12.7215C48.077 12.6139 47.8618 12.5063 47.539 12.6139L45.9252 12.9366L45.8176 15.196Z" fill="#434343"/>
<path d="M56.5778 18.2087H55.1791L54.9639 16.8101H51.6287L50.768 18.2087H49.2617L53.5653 11.0002H55.1791L56.5778 18.2087ZM54.8564 15.7342L54.3184 12.2913L52.2742 15.7342H54.8564Z" fill="#434343"/>
<path d="M59.5909 18.6392L58.2998 18.424L60.5592 12.6142L58.4074 12.2915L58.8377 11.2156L64.4324 12.0763L64.002 13.1522L61.8502 12.8294L59.5909 18.6392Z" fill="#434343"/>
<path d="M66.6925 12.8291L67.876 13.2595L66.4774 15.6264L67.9836 16.1644C68.6291 16.3795 69.0595 16.7023 69.2747 17.2403C69.4899 17.6706 69.4899 18.2086 69.3823 18.7465C69.2747 18.9617 69.1671 19.1769 69.0595 19.392C68.9519 19.6072 68.7367 19.8224 68.5216 19.93C68.3064 20.1452 68.0912 20.2528 67.876 20.3603C67.6608 20.4679 67.3381 20.3603 66.9077 20.3603C66.585 20.3603 66.1546 20.2528 65.8318 20.1452L62.8193 19.1769L66.6925 12.8291ZM67.4457 17.1327L65.8318 16.5947L64.6484 18.5313L66.2622 19.0693C66.6925 19.1769 67.1229 19.1769 67.4457 19.0693C67.7684 18.9617 67.9836 18.6389 68.0912 18.3161C68.1988 18.101 68.1988 17.7782 67.9836 17.563C67.876 17.3478 67.7684 17.2403 67.4457 17.1327Z" fill="#434343"/>
<path d="M72.5013 23.2653C72.2862 23.0501 72.071 22.9425 71.8558 22.6198C71.7482 22.4046 71.6406 22.1894 71.6406 22.0818L72.8241 21.6515C72.8241 21.9742 73.0393 22.297 73.2545 22.5122C73.4696 22.6198 73.6848 22.7274 73.9 22.7274C74.1152 22.7274 74.4379 22.6198 74.8683 22.5122H74.9759L76.6973 17.3479L77.7732 18.101L76.267 22.1894L81.0009 20.3604L82.2919 21.2211L75.5138 23.5881C74.9759 23.8032 74.4379 23.9108 74.0076 23.9108C73.4696 23.6957 72.9317 23.5881 72.5013 23.2653Z" fill="#434343"/>
<path d="M81.9686 31.0116L81.0003 30.0433L81.9686 27.0308L78.0954 27.1384L77.0195 26.0625L82.1838 25.9549L83.3673 22.2969L84.3356 23.2652L83.4749 25.9549L87.0253 25.8473L88.1012 27.0308L83.1521 27.1384L81.9686 31.0116Z" fill="#434343"/>
<path d="M84.3375 34.5623C83.7995 33.7016 83.5843 32.8409 83.6919 31.9801C83.7995 31.1194 84.2299 30.4739 85.0906 29.9359C86.0589 29.2904 87.1348 29.0752 88.2107 29.2904C89.2866 29.5056 90.2549 30.0435 90.7928 31.0118C91.3308 31.8725 91.5459 32.7333 91.4384 33.594C91.3308 34.4547 90.9004 35.1002 90.0397 35.6382C89.0714 36.2837 87.9955 36.4989 86.812 36.2837C85.8437 36.1761 84.983 35.5306 84.3375 34.5623ZM85.3058 34.0243C85.7361 34.6699 86.2741 34.9926 87.1348 35.1002C87.9955 35.2078 88.641 34.9926 89.3942 34.5623C89.9321 34.2395 90.2549 33.7016 90.3625 33.1636C90.47 32.6257 90.3625 32.0877 89.9321 31.5498C89.5017 30.9042 88.9638 30.5815 88.1031 30.4739C87.2424 30.3663 86.5968 30.4739 85.8437 31.0118C85.3058 31.3346 84.983 31.8725 84.8754 32.4105C84.8754 32.9484 84.983 33.4864 85.3058 34.0243Z" fill="#434343"/>
<path d="M85.1963 37.7901L87.5633 37.4673C87.6708 37.6825 87.886 37.8976 87.9936 38.0052C88.2088 38.1128 88.424 38.2204 88.8543 38.328C89.2847 38.4356 89.8226 38.4356 90.5757 38.4356L94.449 38.2204L96.1704 42.7392L90.0378 43.7075L90.253 44.353L87.7784 44.7833L87.3481 43.5999L88.6391 43.3847L86.9177 38.8659L85.6266 38.9735L85.1963 37.7901ZM93.6958 39.4039L90.8985 39.5115C89.8226 39.5115 88.8543 39.4039 88.2088 38.9735L89.6074 42.4164L94.6641 41.6633L93.6958 39.4039Z" fill="#434343"/>
<path d="M14.9413 74.1551L14.4034 72.9716L20.536 71.7881L19.0297 68.3453L12.8972 69.5288L12.4668 68.4529L19.6753 67.0542L22.1498 72.864L14.9413 74.1551Z" fill="#434343"/>
<path d="M18.3851 80.0726C17.8471 79.3195 17.5244 78.4588 17.6319 77.598C17.7395 76.7373 18.1699 75.9842 18.923 75.4463C19.8913 74.6931 20.9672 74.478 22.1507 74.5855C23.2266 74.8007 24.1949 75.3387 24.8404 76.1994C25.3784 76.9525 25.7011 77.8132 25.5935 78.6739C25.486 79.5346 25.0556 80.2878 24.3025 80.8257C23.2266 81.5788 22.1507 81.9016 21.0748 81.6864C19.8913 81.5788 19.0306 81.0409 18.3851 80.0726ZM19.3534 79.4271C19.7837 80.0726 20.4293 80.3954 21.1824 80.5029C21.9355 80.6105 22.6886 80.3954 23.4418 79.8574C23.9797 79.4271 24.3025 78.9967 24.3025 78.4588C24.4101 77.9208 24.1949 77.3829 23.8721 76.8449C23.4418 76.1994 22.7962 75.8766 22.0431 75.769C21.29 75.6614 20.5368 75.8766 19.7837 76.4146C19.2458 76.8449 18.923 77.2753 18.923 77.8132C18.8154 78.3512 18.923 78.8891 19.3534 79.4271Z" fill="#434343"/>
<path d="M20.4297 84.914L22.3663 83.5153C22.5815 83.7305 22.7966 83.8381 23.0118 83.8381C23.227 83.8381 23.5498 83.8381 23.8725 83.7305C24.3029 83.6229 24.8408 83.4077 25.3788 82.9774L28.8216 81.0408L32.4797 84.2684L27.423 87.8189L27.9609 88.2493L25.9167 89.6479L24.9484 88.7872L26.0243 88.0341L22.4739 84.8064L21.398 85.5595L20.4297 84.914ZM28.8216 82.547L26.3471 83.9457C25.3788 84.4836 24.5181 84.6988 23.7649 84.6988L26.5623 87.1734L30.7582 84.2684L28.8216 82.547Z" fill="#434343"/>
<path d="M32.1559 92.553C31.2952 92.015 30.7573 91.3695 30.4345 90.6164C30.1117 89.7557 30.2193 89.0025 30.7573 88.1418C31.2952 87.0659 32.1559 86.4204 33.2318 86.0976C34.3077 85.7749 35.3836 85.8825 36.3519 86.528C37.2126 87.0659 37.7505 87.7115 38.0733 88.4646C38.3961 89.3253 38.2885 90.0784 37.7505 90.9391C37.2126 92.015 36.3519 92.6606 35.1684 92.9833C34.2001 93.3061 33.2318 93.1985 32.1559 92.553ZM32.8014 91.6923C33.447 92.015 34.2001 92.1226 34.9532 91.9074C35.7064 91.6923 36.2443 91.1543 36.6747 90.4012C36.9974 89.8633 37.105 89.3253 36.8898 88.7874C36.6747 88.2494 36.3519 87.8191 35.8139 87.4963C35.1684 87.1735 34.4153 87.0659 33.6622 87.2811C32.909 87.4963 32.3711 88.0342 31.9407 88.7874C31.618 89.3253 31.5104 89.8633 31.7256 90.4012C31.8331 90.9391 32.2635 91.3695 32.8014 91.6923Z" fill="#434343"/>
<path d="M41.1935 88.7874L45.8199 90.2936L45.2819 91.2619L41.8391 90.0784L40.9783 91.4771L42.5922 92.015C43.2377 92.2302 43.6681 92.553 43.8832 92.9833C44.0984 93.4137 44.206 93.9516 43.9908 94.4896C43.8832 94.8123 43.7757 95.0275 43.5605 95.2427C43.3453 95.4579 43.1301 95.673 42.8074 95.8882C42.4846 96.1034 42.1618 96.211 41.7315 96.211C41.3011 96.211 40.8708 96.211 40.3328 95.9958L37.3203 95.0275L41.1935 88.7874ZM41.9466 93.0909L40.4404 92.553L39.2569 94.5971L40.8708 95.1351C41.3011 95.2427 41.7315 95.2427 42.0542 95.1351C42.377 95.0275 42.5922 94.7047 42.6998 94.382C42.8074 94.1668 42.8074 93.844 42.5922 93.6289C42.4846 93.3061 42.2694 93.1985 41.9466 93.0909Z" fill="#434343"/>
<path d="M46.2491 97.6097L44.958 97.3945L47.5401 90.5088L50.4451 90.9391C51.0906 91.0467 51.6285 91.2619 51.9513 91.6923C52.2741 92.1226 52.3817 92.553 52.2741 93.0909C52.2741 93.3061 52.1665 93.5213 52.0589 93.7365C51.9513 93.9516 51.8437 94.1668 51.6285 94.382C51.4134 94.5972 51.1982 94.8124 50.983 94.9199C50.7678 95.0275 50.4451 95.1351 50.1223 95.2427C49.7995 95.3503 49.3692 95.3503 48.9388 95.2427L47.1098 95.0275L46.2491 97.6097ZM47.5401 94.0592L49.2616 94.2744C49.6919 94.382 50.1223 94.2744 50.3375 94.0592C50.6602 93.844 50.7678 93.5213 50.8754 93.1985C50.8754 92.9833 50.8754 92.6606 50.6602 92.4454C50.4451 92.2302 50.2299 92.1226 50.0147 92.1226L48.4009 91.9074L47.5401 94.0592Z" fill="#434343"/>
<path d="M58.3003 98.2551H56.9016L56.6864 96.8564L53.3512 96.964L52.598 98.3627H51.0918L55.2878 91.0466H56.9016L58.3003 98.2551ZM56.5788 95.7805L55.9333 92.3377L53.9967 95.7805H56.5788Z" fill="#434343"/>
<path d="M62.4992 97.5019L61.3157 97.7171L61.4233 91.477L59.2715 91.9073V90.7238L64.7585 89.6479V90.8314L62.6067 91.2618L62.4992 97.5019Z" fill="#434343"/>
<path d="M65.8301 89.2177L67.0136 88.7874L67.4439 91.4771L68.9502 90.8315C69.5957 90.6164 70.1336 90.6164 70.564 90.8315C70.9944 91.0467 71.4247 91.3695 71.6399 91.9074C71.7475 92.1226 71.7475 92.3378 71.8551 92.553C71.8551 92.7682 71.8551 92.9833 71.8551 93.3061C71.8551 93.5213 71.7475 93.844 71.5323 94.0592C71.4247 94.2744 71.2095 94.4896 70.8868 94.7048C70.564 94.9199 70.2412 95.1351 69.9185 95.2427L67.0136 96.4262L65.8301 89.2177ZM69.1653 92.015L67.6591 92.6606L67.9819 94.9199L69.5957 94.2744C70.0261 94.0592 70.3488 93.844 70.4564 93.5213C70.564 93.1985 70.6716 92.8757 70.4564 92.4454C70.3488 92.2302 70.2412 92.015 69.9185 91.9074C69.7033 91.9074 69.3805 91.9074 69.1653 92.015Z" fill="#434343"/>
<path d="M78.2049 91.262C77.9898 91.4771 77.667 91.5847 77.4518 91.5847C77.2366 91.6923 77.0215 91.6923 76.8063 91.6923L76.6987 90.5088C77.0215 90.6164 77.3442 90.5088 77.667 90.2937C77.8822 90.1861 77.9898 89.9709 78.0974 89.7557C78.2049 89.5405 78.2049 89.2178 78.2049 88.7874V88.6798L73.9014 85.4522L74.9773 84.5914L78.3125 87.2812L78.0974 82.2245L79.2808 81.3638V88.5722C79.2808 89.2178 79.1732 89.6481 79.0657 90.0785C78.9581 90.5088 78.6353 90.9392 78.2049 91.262Z" fill="#434343"/>
<path d="M88.21 82.0092L87.2417 83.0851L84.2292 82.332L84.552 86.0976L83.4761 87.2811L83.1533 82.0092L79.3877 81.0409L80.356 79.965L83.1533 80.7181L82.8305 77.2753L83.9064 76.0918L84.3368 80.9333L88.21 82.0092Z" fill="#434343"/>
<path d="M91.5455 77.2752C91.0075 78.1359 90.362 78.6738 89.5013 78.889C88.6406 79.1042 87.8874 78.9966 87.0267 78.5662C86.0584 77.9207 85.3053 77.06 85.0901 75.9841C84.7674 74.9082 84.9825 73.8323 85.5205 72.864C86.0584 72.0033 86.704 71.4653 87.5647 71.2502C88.4254 71.035 89.1785 71.1426 90.0392 71.5729C91.0075 72.2185 91.7607 73.0792 91.9758 74.1551C92.2986 75.3386 92.0834 76.3069 91.5455 77.2752ZM90.5772 76.7372C91.0075 76.0917 91.0075 75.3386 90.7924 74.5854C90.5772 73.8323 90.0392 73.1868 89.3937 72.7564C88.8557 72.4336 88.3178 72.3261 87.7799 72.5412C87.2419 72.7564 86.8116 73.0792 86.4888 73.6171C86.0584 74.2627 86.0584 75.0158 86.2736 75.7689C86.4888 76.522 87.0267 77.1676 87.6723 77.5979C88.2102 77.9207 88.7482 78.0283 89.2861 77.9207C89.8241 77.5979 90.2544 77.2752 90.5772 76.7372Z" fill="#434343"/>
<path d="M95.2031 73.4021L93.1589 72.2187C93.1589 71.8959 93.2665 71.6807 93.1589 71.4655C93.1589 71.2504 92.9437 71.0352 92.7285 70.7124C92.4058 70.3897 92.083 70.0669 91.4375 69.5289L88.3174 67.162L89.9312 62.5356L95.2031 65.7633L95.4183 65.1178L97.57 66.4089L97.1397 67.5923L95.9562 66.9468L94.3424 71.5731L95.5258 72.3263L95.2031 73.4021ZM89.6084 66.7316L91.8678 68.453C92.7285 69.0986 93.3741 69.8517 93.5892 70.6048L94.7727 67.0544L90.4692 64.3647L89.6084 66.7316Z" fill="#434343"/>
<path d="M65.0776 57.4944C65.0557 57.4536 65.0363 57.4272 65.0144 57.3864C64.8155 57.0937 64.6023 56.8035 64.3603 56.5183C64.3022 56.4391 64.2178 56.3794 64.1597 56.3003C63.3209 55.39 62.2652 54.592 61.0288 53.9446C60.9301 53.8874 60.8171 53.8327 60.7066 53.7924C60.6105 53.7497 60.5118 53.6925 60.4156 53.6497C58.6799 52.8513 56.6495 52.3127 54.4527 52.1752C54.424 52.1802 54.4071 52.1683 54.3784 52.1733C53.7364 52.1365 53.1019 52.143 52.4869 52.176C51.9005 52.2039 51.3023 52.2488 50.7403 52.332C49.6451 52.4933 48.5987 52.7652 47.6274 53.1282C47.4603 53.1872 47.2932 53.2461 47.1429 53.317C45.4871 53.9929 44.0876 54.9515 43.0752 56.0956C43.0752 56.0956 43.0752 56.0956 43.0608 56.0981C42.0628 57.2396 41.4375 58.5692 41.3327 60.0013C41.1767 62.1568 42.1953 64.1816 43.9861 65.8039C44.9515 66.6772 46.1456 67.4213 47.5035 68.0028C48.2052 68.2971 48.9593 68.5524 49.7489 68.7569C49.9193 68.8016 50.104 68.8438 50.2887 68.886C50.519 68.9351 50.7637 68.9817 50.994 69.0308C51.6798 69.1492 52.3749 69.2363 53.0937 69.2894C53.362 69.3021 53.6278 69.3004 53.8817 69.3156C53.999 69.31 54.1044 69.3214 54.2217 69.3158C55.699 69.311 57.1123 69.109 58.4144 68.7776C60.1536 68.3252 61.6989 67.609 62.955 66.6754C63.074 66.5951 63.1761 66.5029 63.2783 66.4107C63.4353 66.294 63.5754 66.1653 63.7156 66.0367C63.8676 65.8911 64.0195 65.7455 64.1572 65.6024C64.2331 65.5296 64.2948 65.4594 64.3708 65.3866C64.4679 65.2654 64.565 65.1443 64.6621 65.0232C64.7356 64.9359 64.809 64.8487 64.8825 64.7615C64.9416 64.6767 64.9982 64.5776 65.0548 64.4784C65.206 64.2437 65.3547 63.9945 65.4747 63.7503C65.5617 63.5714 65.6605 63.3755 65.7307 63.1847C65.8034 63.0083 65.8449 62.8225 65.9007 62.6341C65.9261 62.5255 65.9658 62.4144 65.9912 62.3058C66.0005 62.2744 65.9929 62.2311 66.0022 62.1997C66.048 61.9536 66.0937 61.7075 66.1108 61.4664C66.1303 61.2397 66.1212 61.0181 66.1121 60.7964C66.1071 60.7675 66.0995 60.7242 66.1088 60.6928C66.1055 60.5892 66.0879 60.4881 66.0846 60.3845C66.0016 59.6549 65.7895 58.9477 65.4651 58.2751C65.3717 57.9937 65.2259 57.7513 65.0776 57.4944Z" fill="#434343"/>
<path d="M70.0157 47.1672C69.9577 46.835 69.8854 46.5053 69.7414 46.1882C69.7195 46.1473 69.7001 46.121 69.6925 46.0776C69.6731 46.0512 69.6656 46.0079 69.6462 45.9815C69.3395 45.41 68.8826 44.9093 68.2762 44.5686L68.2594 44.5567C68.0789 44.4542 67.9035 44.3807 67.7137 44.3096C67.5408 44.2505 67.3535 44.1939 67.1688 44.1517C66.8162 44.0793 66.4449 44.0697 66.0813 44.1034C66.0239 44.1134 65.9497 44.1115 65.8923 44.1215C65.2561 44.2027 64.6189 44.4479 64.05 44.83C63.4929 45.1951 62.9922 45.714 62.6121 46.331C62.0504 47.2625 61.8581 48.2783 61.9933 49.2221C62.0671 49.7301 62.2246 50.2087 62.4917 50.6383C62.6206 50.8688 62.7875 51.0629 62.9544 51.257C62.9907 51.2953 63.0438 51.3456 63.0801 51.3839C63.1332 51.4342 63.1863 51.4844 63.2538 51.5322C63.4249 51.666 63.5961 51.7999 63.7934 51.9143C63.8609 51.962 63.9402 51.9928 64.0195 52.0236C64.0507 52.0331 64.0844 52.057 64.1156 52.0664C64.5483 52.2588 64.992 52.345 65.4543 52.3685C66.0651 52.3959 66.6794 52.2738 67.271 52.0217C67.3259 51.9973 67.3808 51.9728 67.4356 51.9483C67.5048 51.9214 67.5858 51.8775 67.6525 51.8361C67.7336 51.7922 67.8146 51.7483 67.8813 51.7069C67.9218 51.6849 67.9623 51.663 67.9885 51.6435C68.0408 51.6046 68.1075 51.5632 68.1598 51.5243C68.1978 51.4879 68.2383 51.466 68.2907 51.4271C68.3286 51.3907 68.3666 51.3543 68.4072 51.3323C68.5118 51.2545 68.614 51.1623 68.6993 51.0581C68.7753 50.9853 68.8369 50.915 68.9129 50.8422C68.9745 50.7719 69.0362 50.7016 69.0953 50.6169C69.1308 50.5661 69.1687 50.5297 69.2042 50.4788C69.216 50.4619 69.2279 50.4449 69.2397 50.428C69.3106 50.3263 69.3816 50.2246 69.4525 50.123C69.5091 50.0238 69.5657 49.9246 69.608 49.8279C69.6198 49.811 69.6173 49.7966 69.6291 49.7796C69.6502 49.7313 69.6714 49.6829 69.6925 49.6346C69.8429 49.3107 69.9452 48.9654 70.0189 48.6251C70.0417 48.5021 70.0621 48.3646 70.0706 48.244C70.0681 48.2296 70.0799 48.2127 70.0749 48.1838C70.0927 48.0318 70.0937 47.868 70.0972 47.7185C70.0896 47.6752 70.0989 47.6438 70.0913 47.6005C70.0805 47.4535 70.0553 47.3091 70.0301 47.1647C70.0208 47.1961 70.0208 47.1961 70.0157 47.1672C70.0182 47.1816 70.0326 47.1791 70.0157 47.1672Z" fill="#434343"/>
<path d="M50.6986 47.2643C50.9035 47.422 51.1346 47.5603 51.3631 47.6841C51.4112 47.7055 51.4762 47.7388 51.5242 47.7601C51.5892 47.7935 51.6659 47.8098 51.7452 47.8406C51.9493 47.9092 52.1678 47.9752 52.3956 48.0099C52.4867 48.0238 52.5609 48.0257 52.652 48.0396C52.6833 48.049 52.7263 48.0415 52.7575 48.0509C53.2342 48.0719 53.6957 48.0062 54.1278 47.8564C54.7151 47.6646 55.2486 47.3334 55.707 46.9111C55.745 46.8747 55.7805 46.8239 55.8328 46.785C55.8826 46.7316 55.9468 46.6758 55.9941 46.608C56.0557 46.5377 56.103 46.4699 56.1647 46.3996C56.1883 46.3657 56.212 46.3318 56.25 46.2954C56.2854 46.2446 56.3184 46.1793 56.3682 46.126C56.3893 46.0776 56.4273 46.0412 56.4484 45.9929C56.4696 45.9446 56.4932 45.9107 56.5287 45.8598C56.5971 45.7437 56.6512 45.6301 56.7053 45.5165C56.7475 45.4198 56.7923 45.3376 56.8202 45.2434C56.8506 45.1637 56.8786 45.0695 56.9065 44.9754C56.9276 44.927 56.9462 44.8643 56.953 44.8184C56.9505 44.804 56.9623 44.787 56.9598 44.7726C56.9826 44.6495 57.0224 44.5384 57.0452 44.4154C57.0706 44.3068 57.0792 44.1862 57.0902 44.0801C57.0877 44.0657 57.0852 44.0512 57.0945 44.0198C57.1012 43.974 57.1055 43.9137 57.0979 43.8704C57.1235 43.5087 57.0917 43.1571 57.0337 42.8249C57.0111 42.6949 56.974 42.5675 56.9395 42.4544C56.937 42.44 56.932 42.4111 56.9294 42.3966C56.8874 42.2403 56.8335 42.1009 56.7796 41.9614C56.7577 41.9206 56.7383 41.8942 56.7307 41.8509C56.6625 41.714 56.5824 41.594 56.5167 41.4715L56.5142 41.4571C56.5142 41.4571 56.5142 41.4571 56.4973 41.4451C56.3128 41.1499 56.1164 40.8717 55.882 40.6298C55.8483 40.6059 55.8145 40.582 55.7926 40.5412C55.7589 40.5173 55.7395 40.491 55.7058 40.4671C55.2016 40.0342 54.5884 39.7394 53.8908 39.6379C53.8764 39.6404 53.8764 39.6404 53.8739 39.6259C53.6774 39.6007 53.469 39.5924 53.2774 39.5961C53.0497 39.5614 52.8607 39.5795 52.6742 39.6121C52.3156 39.6746 51.9645 39.7806 51.6379 39.9417C51.583 39.9662 51.5282 39.9907 51.4759 40.0296C50.9087 40.3369 50.4097 40.7812 50.017 41.3259C49.6243 41.8707 49.3522 42.5135 49.2243 43.2205C49.0396 44.2796 49.2472 45.3 49.7166 46.126C49.9693 46.5581 50.3032 46.9463 50.6986 47.2643Z" fill="#434343"/>
<path d="M39.4734 51.9765C39.6176 52.0406 39.7644 52.1192 39.9061 52.1689C39.9373 52.1783 39.9853 52.1997 40.0309 52.2066C40.1726 52.2563 40.3261 52.289 40.4797 52.3218L40.4965 52.3337L40.5109 52.3312C40.8491 52.4061 41.1992 52.4641 41.551 52.4473C41.5941 52.4398 41.6396 52.4468 41.6827 52.4392C41.7257 52.4317 41.7569 52.4412 41.7999 52.4337C42.4699 52.3763 43.1264 52.1575 43.6903 51.7466C43.6903 51.7466 43.7047 51.7441 43.7021 51.7296C43.8735 51.6104 44.0136 51.4818 44.1513 51.3387C44.2771 51.2126 44.4003 51.072 44.5211 50.917C44.7365 50.6264 44.8869 50.3025 45.0061 49.9691C45.0247 49.9064 45.0458 49.858 45.0644 49.7952C45.2387 49.1844 45.2594 48.5408 45.1316 47.8934C45.0038 47.246 44.7183 46.6261 44.2774 46.0482C43.6115 45.197 42.7159 44.6389 41.7729 44.4017C41.2617 44.2677 40.7395 44.2397 40.2324 44.2985C39.9716 44.3291 39.7016 44.3911 39.451 44.4795C39.3961 44.504 39.3387 44.514 39.2839 44.5384C39.2147 44.5654 39.1455 44.5923 39.0645 44.6363C38.8594 44.7316 38.6712 44.8388 38.488 44.975C38.4238 45.0308 38.3597 45.0867 38.293 45.1281C38.2668 45.1475 38.2406 45.167 38.217 45.2009C37.8725 45.514 37.5955 45.8749 37.4004 46.281C37.1393 46.8177 36.9912 47.4091 36.9966 48.0332C36.9924 48.0935 37.0025 48.1513 37.01 48.1946C37.0083 48.2693 37.0234 48.356 37.0217 48.4307C36.9794 48.5274 36.9945 48.614 37.0097 48.7007C37.0172 48.744 37.0248 48.7873 37.0323 48.8307C37.0449 48.9029 37.0694 48.9581 37.082 49.0303C37.0895 49.0737 37.0996 49.1314 37.1215 49.1723C37.1291 49.2156 37.1535 49.2709 37.1754 49.3117C37.2124 49.4392 37.2613 49.5497 37.3127 49.6747C37.3565 49.7563 37.3885 49.8549 37.4323 49.9366C37.4761 50.0182 37.5199 50.0999 37.5637 50.1815C37.5882 50.2368 37.6244 50.2751 37.6488 50.3304C37.6514 50.3448 37.6682 50.3568 37.6851 50.3687C37.7483 50.4768 37.8233 50.5678 37.9008 50.6734C37.9759 50.7645 38.0484 50.8411 38.1234 50.9322C38.1403 50.9441 38.1428 50.9586 38.1596 50.9705C38.1959 51.0088 38.2321 51.0471 38.2684 51.0855C38.5196 51.3393 38.797 51.5736 39.0956 51.7597C39.2111 51.8288 39.3266 51.8979 39.4397 51.9526C39.4422 51.9671 39.459 51.979 39.4734 51.9765Z" fill="#434343"/>
</svg>
